<?xml version="1.0" standalone="no"?>
<!DOCTYPE svg PUBLIC "-//W3C//DTD SVG 20010904//EN"
 "http://www.w3.org/TR/2001/REC-SVG-20010904/DTD/svg10.dtd">
<svg version="1.0" xmlns="http://www.w3.org/2000/svg"
 width="500.000000pt" height="500.000000pt" viewBox="0 0 500.000000 500.000000"
 preserveAspectRatio="xMidYMid meet">

<g transform="translate(0.000000,500.000000) scale(0.100000,-0.100000)"
fill="#000000" stroke="none">
<path d="M2324 4291 c-85 -23 -177 -68 -259 -126 -65 -46 -215 -197 -255 -257
-15 -23 -31 -36 -40 -33 -60 17 -199 28 -330 28 -133 0 -169 -4 -253 -26 -386
-102 -525 -411 -381 -847 38 -113 124 -281 212 -414 l79 -119 -74 -109 c-216
-320 -312 -646 -258 -876 49 -208 218 -355 463 -403 42 -8 65 -17 69 -28 27
-87 107 -125 182 -87 30 16 61 56 61 80 0 10 15 17 48 21 26 3 83 12 128 19
l81 12 24 -35 c13 -19 64 -77 113 -128 308 -323 683 -368 1017 -122 73 54 175
158 229 232 18 26 37 47 42 47 6 0 64 -7 131 -16 469 -62 800 87 882 397 19
70 19 235 0 324 -36 169 -127 370 -251 556 -41 62 -73 117 -71 123 3 6 35 56
72 111 73 109 182 324 215 423 51 156 65 339 35 457 -46 175 -178 307 -372
370 -41 13 -53 21 -53 37 0 53 -64 108 -127 108 -38 0 -89 -32 -107 -68 -15
-28 -20 -30 -98 -37 -82 -7 -186 -19 -243 -30 -27 -5 -34 0 -75 56 -67 91
-216 228 -303 277 -124 71 -203 94 -342 98 -97 3 -134 0 -191 -15z m301 -36
c76 -16 189 -66 261 -116 65 -44 171 -146 227 -218 l48 -60 -43 -11 c-117 -30
-347 -108 -458 -157 -69 -30 -134 -57 -145 -60 -12 -2 -62 14 -115 37 -145 65
-292 118 -429 156 -68 19 -126 36 -129 39 -8 8 66 100 140 171 198 192 417
267 643 219z m-958 -406 c43 -7 80 -13 82 -15 2 -2 -28 -65 -67 -141 -112
-221 -183 -440 -227 -707 l-16 -99 -116 -126 c-63 -69 -132 -147 -152 -173
-20 -26 -39 -47 -44 -48 -4 0 -38 46 -75 103 -142 216 -231 428 -254 609 -39
314 127 533 453 597 65 13 327 13 416 0z m1902 -12 c16 -41 68 -77 112 -77 47
0 94 22 110 51 9 17 17 20 45 16 102 -17 263 -136 317 -235 101 -185 64 -477
-99 -778 -48 -89 -156 -258 -172 -268 -5 -3 -45 36 -88 87 -43 50 -113 128
-156 173 l-78 81 -19 109 c-50 286 -150 573 -267 765 -20 33 -33 63 -29 67 12
13 138 30 228 31 83 1 88 0 96 -22z m-1628 -46 c174 -49 499 -173 499 -190 0
-3 -57 -37 -127 -76 -238 -131 -496 -311 -703 -490 -60 -52 -112 -95 -115 -95
-3 0 -3 10 -1 23 3 12 15 72 26 132 12 61 37 161 56 223 65 215 204 502 243
502 10 0 64 -13 122 -29z m1282 -28 c81 -135 158 -314 212 -494 27 -92 77
-320 71 -327 -2 -2 -32 22 -67 54 -223 198 -512 401 -777 544 -56 30 -102 58
-102 61 0 7 220 98 334 138 84 30 258 79 283 80 6 1 27 -25 46 -56z m-641
-229 c260 -131 609 -373 843 -585 71 -64 92 -89 98 -118 13 -61 20 -500 9
-601 l-10 -95 -68 -63 c-234 -215 -552 -439 -849 -598 l-105 -56 -133 73
c-300 163 -587 369 -839 601 l-47 43 -11 128 c-12 156 -12 346 0 487 l9 105
76 73 c143 135 373 310 585 444 125 79 340 198 358 198 7 0 45 -16 84 -36z
m1194 -947 l74 -88 -61 -75 c-34 -41 -97 -112 -141 -157 l-79 -82 7 55 c9 71
9 403 0 500 l-7 75 67 -70 c36 -38 99 -110 140 -158z m-2351 -93 l0 -306 -64
68 c-92 99 -201 230 -201 241 0 14 111 146 194 231 39 39 71 72 71 72 0 0 0
-138 0 -306z m-233 -111 c35 -43 107 -123 160 -179 90 -95 95 -103 102 -155
32 -246 136 -564 251 -772 30 -54 55 -101 55 -106 0 -11 -47 -20 -140 -28 -74
-6 -76 -5 -88 21 -16 35 -69 66 -112 66 -41 0 -94 -29 -111 -62 -6 -13 -13
-24 -14 -26 -8 -10 -163 36 -230 68 -121 58 -203 147 -248 270 -30 81 -29 264
2 380 27 100 78 229 128 320 34 61 172 280 177 280 2 0 32 -35 68 -77z m2760
-30 c77 -117 174 -309 208 -413 111 -335 36 -596 -207 -723 -120 -63 -202 -80
-393 -81 -137 0 -310 15 -310 29 0 1 31 63 69 136 112 217 186 447 227 704
l17 110 96 100 c53 55 123 133 156 173 32 39 60 72 62 72 2 0 35 -48 75 -107z
m-466 -434 c-14 -68 -37 -164 -51 -214 -63 -218 -217 -541 -253 -531 -9 2 -61
16 -114 31 -191 50 -519 179 -501 195 4 4 65 40 135 79 235 130 516 328 718
504 47 41 86 71 88 67 2 -4 -8 -63 -22 -131z m-1860 29 c221 -191 545 -411
757 -514 31 -16 56 -32 54 -37 -8 -25 -386 -167 -540 -203 l-79 -18 -19 24
c-35 45 -157 303 -193 407 -37 108 -90 315 -102 398 -8 59 -15 62 122 -57z
m1024 -641 c149 -65 275 -109 417 -146 l105 -27 -59 -75 c-111 -139 -254 -246
-395 -297 -96 -34 -261 -42 -356 -17 -136 35 -242 97 -365 214 -72 69 -154
168 -146 175 2 2 49 16 104 31 129 35 317 103 442 160 54 25 105 43 113 41 8
-3 71 -29 140 -59z"/>
<path d="M2370 3184 c-36 -7 -107 -34 -159 -60 -77 -38 -109 -62 -175 -128
-90 -90 -136 -160 -172 -265 -45 -130 -54 -302 -18 -358 15 -24 56 -31 83 -14
16 10 30 82 30 161 2 125 59 262 151 363 223 242 607 242 830 0 177 -193 200
-488 55 -699 -21 -30 -41 -54 -45 -54 -4 0 -92 190 -196 423 -189 421 -189
422 -221 425 -24 2 -35 -2 -47 -20 -33 -51 -226 -487 -226 -510 0 -46 54 -73
99 -48 10 5 51 81 91 170 40 88 76 160 79 160 8 0 164 -360 159 -366 -2 -2
-22 1 -43 7 -22 6 -80 9 -130 7 -100 -5 -193 -38 -237 -85 l-23 -26 25 6 c92
22 166 27 219 16 68 -13 150 -56 217 -110 50 -41 113 -123 114 -147 0 -19
-115 -70 -196 -87 -87 -18 -131 -18 -218 0 -72 15 -206 72 -206 87 0 5 11 36
26 69 23 57 24 63 9 85 -8 13 -26 26 -39 30 -48 12 -66 -4 -107 -92 -22 -46
-39 -92 -39 -102 0 -21 36 -82 59 -99 9 -7 42 -26 73 -43 177 -95 380 -112
569 -46 105 36 175 82 265 172 135 134 203 300 204 495 1 447 -416 779 -860
683z"/>
</g>
</svg>
